# xmcd
#
# Track frame offsets: 
#        150
#        16611
#        43777
#        54427
#        76883
#        88979
#        105600
#        130842
#        153721
#        167196
#
# Disc length: 2460 seconds
#
# Revision: 0
# Processed by: cddbd v1.5.2PL0 Copyright (c) Steve Scherf et al.
# Submitted via: ExactAudioCopy v1.3
#
DISCID=78099a0a
DTITLE=Solomon King and The Chosen - Jack Me Up
DYEAR=2017
DGENRE=Blues Rock
TTITLE0=Jack Me Up
TTITLE1=Under The Sun
TTITLE2=Baby Does Me Good
TTITLE3=Frankie and Johnnie
TTITLE4=Bad To Me
TTITLE5=Love and Happiness
TTITLE6=Train
TTITLE7=Whiter Shade Of Pale
TTITLE8=Be My Baby
TTITLE9=Addicted To Love
EXTD=
EXTT0=
EXTT1=
EXTT2=
EXTT3=
EXTT4=
EXTT5=
EXTT6=
EXTT7=
EXTT8=
EXTT9=
PLAYORDER=
